<svg width="315" height="451" viewBox="0 0 315 451" fill="none" xmlns="http://www.w3.org/2000/svg">
<g clip-path="url(#clip0_1482_1281)">
<rect x="0.417603" y="0.799774" width="314" height="450" rx="30" fill="#48CEBF"/>
<g style="mix-blend-mode:soft-light" opacity="0.5">
<path d="M-13.5824 147.87H92.7176C92.7176 147.87 85.1176 124.57 72.3176 127.97C59.5176 131.27 60.0176 134.17 60.0176 134.17C60.0176 134.17 56.2176 114.27 39.1176 117.07C22.0176 119.87 18.2176 133.67 18.2176 133.67C18.2176 133.67 7.31761 129.37 2.51761 133.67C-2.18239 137.97 -1.28238 140.27 -1.28238 140.27C-1.28238 140.27 -11.6824 135.57 -13.5824 147.87Z" fill="white"/>
</g>
<g style="mix-blend-mode:soft-light" opacity="0.8">
<path d="M267.418 105.016C266.218 101.616 263.518 95.7158 259.318 94.3158C253.318 92.3158 244.418 98.9158 244.418 98.9158C244.418 98.9158 240.118 83.4158 225.718 82.8158C211.318 82.2158 213.918 98.6158 213.918 98.6158C213.918 98.6158 210.218 97.5158 202.718 95.2158C195.218 92.9158 192.618 99.8158 192.618 99.8158C187.918 98.1158 186.018 102.616 185.418 105.016H267.418Z" fill="white"/>
</g>
<path d="M44.1176 4.79977C44.1176 4.79977 43.9176 7.39977 41.4176 7.69977C43.9176 7.99977 44.1176 10.5998 44.1176 10.5998C44.1176 10.5998 44.3176 7.99977 46.8176 7.69977C44.3176 7.49977 44.1176 4.79977 44.1176 4.79977Z" fill="#FFD08A"/>
<path d="M178.118 45.7998C178.118 45.7998 177.918 48.3998 175.418 48.6998C177.918 48.9998 178.118 51.5998 178.118 51.5998C178.118 51.5998 178.318 48.9998 180.818 48.6998C178.318 48.4998 178.118 45.7998 178.118 45.7998Z" fill="#FFD08A"/>
<path d="M80.1176 35.7998C80.1176 35.7998 79.9176 38.3998 77.4176 38.6998C79.9176 38.9998 80.1176 41.5998 80.1176 41.5998C80.1176 41.5998 80.3176 38.9998 82.8176 38.6998C80.3176 38.4998 80.1176 35.7998 80.1176 35.7998Z" fill="#FFD08A"/>
<path d="M300.118 104.8C300.118 104.8 299.918 107.4 297.418 107.7C299.918 108 300.118 110.6 300.118 110.6C300.118 110.6 300.318 108 302.818 107.7C300.218 107.5 300.118 104.8 300.118 104.8Z" fill="#FFD08A"/>
<path d="M183.718 164.4C183.718 164.4 183.518 167 181.018 167.3C183.518 167.6 183.718 170.2 183.718 170.2C183.718 170.2 183.918 167.6 186.418 167.3C183.818 167.1 183.718 164.4 183.718 164.4Z" fill="#FFD08A"/>
<path d="M139.518 74.7998C139.518 74.7998 139.018 81.7998 132.418 82.3998C139.018 83.0998 139.518 89.9998 139.518 89.9998C139.518 89.9998 140.018 82.9998 146.618 82.3998C140.018 81.7998 139.518 74.7998 139.518 74.7998Z" fill="#FFD08A"/>
<path d="M15.5176 63.4998C15.5176 63.4998 15.0176 70.4998 8.4176 71.0998C15.0176 71.7998 15.5176 78.6998 15.5176 78.6998C15.5176 78.6998 16.0176 71.6998 22.6176 71.0998C16.0176 70.4998 15.5176 63.4998 15.5176 63.4998Z" fill="#FFD08A"/>
<path d="M132.618 4.79977C132.618 4.79977 132.218 9.89977 127.418 10.3998C132.218 10.8998 132.618 15.9998 132.618 15.9998C132.618 15.9998 133.018 10.8998 137.818 10.3998C133.018 9.79977 132.618 4.79977 132.618 4.79977Z" fill="#FFD08A"/>
<path d="M59.0176 99.7998C59.0176 99.7998 58.7176 104.3 54.4176 104.8C58.7176 105.2 59.0176 109.8 59.0176 109.8C59.0176 109.8 59.3176 105.3 63.6176 104.8C59.4176 104.3 59.0176 99.7998 59.0176 99.7998Z" fill="#FFD08A"/>
<path d="M99.9176 199.7C99.9176 199.7 99.6176 204.2 95.3176 204.7C99.6176 205.1 99.9176 209.7 99.9176 209.7C99.9176 209.7 100.218 205.2 104.518 204.7C100.218 204.2 99.9176 199.7 99.9176 199.7Z" fill="#FFD08A"/>
<g style="mix-blend-mode:soft-light" opacity="0.5">
<path d="M238.218 173.3H344.518C344.518 173.3 336.918 150 324.118 153.4C311.318 156.7 311.818 159.6 311.818 159.6C311.818 159.6 308.018 139.7 290.918 142.5C273.818 145.3 270.018 159.1 270.018 159.1C270.018 159.1 259.118 154.8 254.318 159.1C249.618 163.4 250.518 165.7 250.518 165.7C250.518 165.7 240.118 161 238.218 173.3Z" fill="white"/>
</g>
</g>
<defs>
<clipPath id="clip0_1482_1281">
<rect width="314" height="450" fill="white" transform="translate(0.417603 0.799774)"/>
</clipPath>
</defs>
</svg>
